# xmcd
#
# Track frame offsets: 
#        150
#        20643
#        36132
#        58607
#        80554
#        102142
#        117246
#        135385
#        154197
#        176323
#        197085
#
# Disc length: 2845 seconds
#
# Revision: 3
# Processed by: cddbd v1.5.2PL0 Copyright (c) Steve Scherf et al.
# Submitted via: ExactAudioCopy v1.0b3
#
DISCID=880b1b0b
DTITLE=Viola Brzezińska - Przystań
DYEAR=2008
DGENRE=
TTITLE0=Tęsknota
TTITLE1=Pocałuj mnie
TTITLE2=Nie ma mnie bez Ciebie
TTITLE3=Druga po Bogu
TTITLE4=12 Lipca
TTITLE5=Przystań
TTITLE6=Tylko miłość
TTITLE7=O świcie
TTITLE8=Nie znajduję słów
TTITLE9=Walizka
TTITLE10=Zabierz mnie ze sobą
EXTD=YEAR: 2008
EXTT0=
EXTT1=
EXTT2=
EXTT3=
EXTT4=
EXTT5=
EXTT6=
EXTT7=
EXTT8=
EXTT9=
EXTT10=
PLAYORDER=
